<svg width="40" height="40" viewBox="0 0 40 40" fill="none" xmlns="http://www.w3.org/2000/svg">
<path fill-rule="evenodd" clip-rule="evenodd" d="M24.8 8.80005H15.2C11.6654 8.80005 8.8 11.6655 8.8 15.2001V24.8001C8.8 28.3346 11.6654 31.2001 15.2 31.2001H24.8C28.3346 31.2001 31.2 28.3346 31.2 24.8001V15.2001C31.2 11.6655 28.3346 8.80005 24.8 8.80005Z" stroke="#FF8BF3" stroke-linecap="round" stroke-linejoin="round"/>
<path fill-rule="evenodd" clip-rule="evenodd" d="M20 24.8C17.349 24.8 15.2 22.651 15.2 20C15.2 17.3489 17.349 15.2 20 15.2C22.651 15.2 24.8 17.3489 24.8 20C24.8 21.2729 24.2942 22.4939 23.3941 23.394C22.4939 24.2942 21.273 24.8 20 24.8Z" stroke="#FF8BF3" stroke-linecap="round" stroke-linejoin="round"/>
<path d="M26.4 12.8C25.9582 12.8 25.6 13.1582 25.6 13.6C25.6 14.0418 25.9582 14.4 26.4 14.4C26.8418 14.4 27.2 14.0418 27.2 13.6C27.2 13.1582 26.8418 12.8 26.4 12.8Z" stroke="#FF8BF3" stroke-linecap="round"/>
<path d="M26.1794 8.85333C25.9484 8.46999 25.9637 7.93382 26.2152 7.57046C26.5071 7.14955 26.9035 6.96073 27.4047 7.00399C27.7967 7.03797 28.1396 7.27673 28.3374 7.62489C28.341 7.63118 28.3469 7.63591 28.3538 7.63819C28.3607 7.64046 28.3682 7.64014 28.3749 7.63726C28.5266 7.56891 28.6859 7.51849 28.8527 7.48599C28.8738 7.48182 28.8827 7.46926 28.8795 7.44832C28.7977 6.84607 28.6416 6.29261 28.4114 5.78792C28.1945 5.31238 27.9267 4.96112 27.608 4.73413C26.8439 4.18977 26.0164 4.32297 25.3013 4.87199C24.3438 5.60674 23.6708 6.81404 23.4878 7.9796C23.3752 8.69632 23.5063 9.48697 24.092 9.9647C24.2863 10.1233 24.535 10.2299 24.8384 10.2845C25.5475 10.4113 26.2547 10.3109 26.9078 10.0057C26.9136 10.003 26.9184 9.99869 26.9217 9.99321C26.925 9.98774 26.9265 9.98138 26.9262 9.97496C26.916 9.80577 26.9263 9.63185 26.9572 9.45319C26.961 9.4312 26.952 9.41743 26.9302 9.4119C26.605 9.33049 26.3548 9.1443 26.1794 8.85333Z" stroke="#EF94B8" stroke-width="2"/>
<path d="M27.1179 8.90264C27.2906 8.51057 27.5492 8.17625 27.8877 7.92288C27.9044 7.91072 27.9074 7.89553 27.8968 7.87731C27.7718 7.66684 27.5995 7.54592 27.38 7.51455C26.4923 7.38761 26.1573 8.66448 27.0638 8.9279C27.0744 8.93087 27.0858 8.92995 27.0957 8.92531C27.1056 8.92067 27.1135 8.91262 27.1179 8.90264Z" stroke="#EF94B8" stroke-width="2"/>
<path d="M31.2318 10.0361C31.2557 9.7871 31.2303 9.53588 31.1571 9.29674C31.0839 9.05759 30.9643 8.83521 30.8051 8.64229C30.646 8.44936 30.4504 8.28968 30.2295 8.17234C30.0087 8.05501 29.7668 7.98233 29.5179 7.95845C29.0151 7.91022 28.5137 8.0637 28.1241 8.38513C27.7345 8.70655 27.4885 9.16959 27.4403 9.67238C27.4164 9.92134 27.4418 10.1726 27.515 10.4117C27.5882 10.6508 27.7078 10.8732 27.867 11.0662C28.1884 11.4558 28.6514 11.7018 29.1542 11.75C29.4032 11.7739 29.6544 11.7485 29.8935 11.6753C30.1327 11.6021 30.3551 11.4825 30.548 11.3233C30.7409 11.1642 30.9006 10.9686 31.0179 10.7477C31.1353 10.5268 31.2079 10.285 31.2318 10.0361Z" stroke="#EF94B8" stroke-width="2"/>
<path d="M32.4661 10.5409C32.821 11.1275 32.5224 11.9115 31.894 12.1376C31.4501 12.2973 31.0517 12.2111 30.699 11.879C30.6861 11.8668 30.6723 11.8658 30.6575 11.8761C30.4834 11.9946 30.2876 12.0886 30.0701 12.1582C30.0661 12.1595 30.0624 12.1616 30.0592 12.1643C30.0561 12.1671 30.0535 12.1705 30.0516 12.1742C30.0498 12.178 30.0487 12.1821 30.0484 12.1863C30.0482 12.1905 30.0488 12.1947 30.0502 12.1986C30.2593 12.7876 30.6246 13.2485 31.1461 13.5813C31.91 14.0689 32.7839 13.8168 33.425 13.2607C34.1206 12.6573 34.579 11.8819 34.8002 10.9345C34.8618 10.6697 34.877 10.3938 34.8461 10.1067C34.8018 9.69687 34.6155 9.39676 34.263 9.18185C33.5254 8.73289 32.4985 8.90682 31.6745 9.18122C31.6689 9.18308 31.6642 9.18701 31.6614 9.19221C31.6586 9.19741 31.6579 9.20348 31.6594 9.20919C31.7305 9.45094 31.759 9.7151 31.7449 10.0017C31.744 10.0215 31.7533 10.0336 31.7729 10.0379C32.0735 10.1059 32.3046 10.2736 32.4661 10.5409Z" stroke="#EF94B8" stroke-width="2"/>
<path d="M31.6441 10.5523C31.5359 10.9114 31.3545 11.2314 31.0928 11.5071C31.0898 11.5103 31.0875 11.514 31.0861 11.5181C31.0846 11.5222 31.084 11.5265 31.0842 11.5308C31.0845 11.5351 31.0856 11.5394 31.0876 11.5432C31.0895 11.5471 31.0922 11.5505 31.0956 11.5533C31.4096 11.8187 31.8504 11.7201 32.0408 11.3648C32.2225 11.0257 32.0394 10.6532 31.681 10.5331C31.6623 10.5269 31.65 10.5333 31.6441 10.5523Z" stroke="#EF94B8" stroke-width="2"/>
<path d="M27.059 10.7751C26.2438 11.1241 25.2927 11.2063 24.4421 10.9782C23.5211 10.7309 22.9126 9.98991 22.7453 9.05544C22.6519 8.53412 22.6673 8.06142 22.7928 7.52757C23.0111 6.60016 23.4268 5.76632 24.0399 5.02607C24.7028 4.22643 25.6797 3.53535 26.7545 3.62709C27.3461 3.67764 27.8615 3.90578 28.3007 4.31149C29.1449 5.09108 29.4815 6.29359 29.6511 7.43054C29.6539 7.44766 29.664 7.45757 29.6812 7.46026C30.366 7.57238 30.9081 7.90627 31.3075 8.46192C31.3202 8.47965 31.3369 8.48486 31.3576 8.47756C32.1521 8.19311 33.107 8.04426 33.9136 8.22534C34.6188 8.38327 35.264 8.84246 35.5003 9.54207C35.713 10.1703 35.6356 10.8862 35.4332 11.5278C34.9601 13.0277 33.6826 14.5821 32.0082 14.615C31.6464 14.6219 31.2958 14.5346 30.9565 14.3531C30.1271 13.9096 29.5659 13.2213 29.2729 12.2882C29.2708 12.2816 29.2667 12.2758 29.261 12.2716C29.2554 12.2675 29.2486 12.2652 29.2415 12.2651C29.0541 12.2643 28.868 12.236 28.6832 12.1801C27.9401 11.955 27.4167 11.4939 27.1131 10.7968C27.1021 10.7717 27.0841 10.7644 27.059 10.7751ZM26.1794 8.85338C25.9484 8.47004 25.9637 7.93387 26.2152 7.57051C26.5071 7.14961 26.9035 6.96078 27.4047 7.00404C27.7967 7.03802 28.1396 7.27679 28.3373 7.62494C28.341 7.63123 28.3468 7.63596 28.3538 7.63824C28.3607 7.64052 28.3682 7.64019 28.3749 7.63731C28.5266 7.56897 28.6859 7.51854 28.8527 7.48605C28.8737 7.48187 28.8827 7.46932 28.8795 7.44838C28.7977 6.84613 28.6416 6.29266 28.4114 5.78797C28.1945 5.31244 27.9267 4.96117 27.608 4.73418C26.8439 4.18982 26.0164 4.32303 25.3013 4.87204C24.3438 5.60679 23.6708 6.8141 23.4878 7.97966C23.3752 8.69637 23.5063 9.48702 24.092 9.96475C24.2862 10.1234 24.535 10.23 24.8384 10.2845C25.5475 10.4114 26.2547 10.311 26.9078 10.0057C26.9136 10.0031 26.9184 9.99874 26.9217 9.99327C26.925 9.98779 26.9265 9.98144 26.9262 9.97501C26.916 9.80582 26.9263 9.6319 26.9572 9.45324C26.961 9.43125 26.952 9.41749 26.9302 9.41195C26.605 9.33054 26.3548 9.14435 26.1794 8.85338ZM27.1178 8.90263C27.2906 8.51056 27.5492 8.17625 27.8877 7.92287C27.9044 7.91071 27.9074 7.89552 27.8968 7.8773C27.7718 7.66684 27.5995 7.54592 27.38 7.51454C26.4923 7.3876 26.1573 8.66448 27.0638 8.92789C27.0744 8.93087 27.0857 8.92995 27.0957 8.92531C27.1056 8.92067 27.1135 8.91261 27.1178 8.90263ZM31.2318 10.0361C31.2557 9.78715 31.2303 9.53593 31.1571 9.29678C31.0839 9.05764 30.9643 8.83526 30.8051 8.64233C30.646 8.44941 30.4504 8.28972 30.2295 8.17239C30.0087 8.05506 29.7668 7.98238 29.5179 7.9585C29.0151 7.91027 28.5137 8.06375 28.1241 8.38517C27.7345 8.7066 27.4885 9.16964 27.4403 9.67243C27.4164 9.92138 27.4418 10.1726 27.515 10.4117C27.5882 10.6509 27.7078 10.8733 27.867 11.0662C28.1884 11.4558 28.6514 11.7018 29.1542 11.75C29.4032 11.7739 29.6544 11.7485 29.8935 11.6753C30.1327 11.6021 30.3551 11.4825 30.548 11.3234C30.7409 11.1642 30.9006 10.9686 31.0179 10.7477C31.1353 10.5269 31.2079 10.2851 31.2318 10.0361ZM32.4661 10.541C32.821 11.1276 32.5224 11.9116 31.894 12.1377C31.45 12.2974 31.0517 12.2112 30.699 11.8791C30.6861 11.8669 30.6722 11.8659 30.6575 11.8762C30.4834 11.9947 30.2876 12.0887 30.0701 12.1583C30.0661 12.1596 30.0624 12.1617 30.0592 12.1644C30.0561 12.1672 30.0535 12.1705 30.0516 12.1743C30.0498 12.1781 30.0487 12.1822 30.0484 12.1864C30.0482 12.1906 30.0488 12.1948 30.0502 12.1987C30.2593 12.7877 30.6246 13.2486 31.1461 13.5814C31.9099 14.0689 32.7839 13.8169 33.425 13.2608C34.1206 12.6574 34.579 11.882 34.8002 10.9346C34.8618 10.6698 34.877 10.3938 34.8461 10.1067C34.8018 9.69694 34.6154 9.39683 34.263 9.18192C33.5254 8.73296 32.4985 8.90689 31.6745 9.18129C31.6689 9.18315 31.6642 9.18708 31.6614 9.19228C31.6586 9.19748 31.6579 9.20355 31.6594 9.20926C31.7305 9.45101 31.759 9.71517 31.7449 10.0017C31.744 10.0216 31.7533 10.0337 31.7729 10.038C32.0735 10.106 32.3046 10.2737 32.4661 10.541ZM31.6441 10.5524C31.5359 10.9115 31.3545 11.2315 31.0928 11.5072C31.0898 11.5104 31.0875 11.5141 31.0861 11.5182C31.0846 11.5222 31.084 11.5266 31.0842 11.5309C31.0845 11.5352 31.0856 11.5395 31.0876 11.5433C31.0895 11.5472 31.0922 11.5506 31.0956 11.5534C31.4096 11.8188 31.8504 11.7202 32.0408 11.3649C32.2225 11.0258 32.0394 10.6533 31.681 10.5332C31.6623 10.527 31.65 10.5334 31.6441 10.5524Z" fill="#EA73A1"/>
<path d="M26.1794 8.85333C26.3548 9.1443 26.605 9.33049 26.9302 9.4119C26.952 9.41743 26.961 9.4312 26.9572 9.45319C26.9263 9.63185 26.916 9.80577 26.9262 9.97496C26.9265 9.98138 26.925 9.98774 26.9217 9.99321C26.9184 9.99869 26.9136 10.003 26.9078 10.0057C26.2547 10.3109 25.5475 10.4113 24.8384 10.2845C24.535 10.2299 24.2863 10.1233 24.092 9.9647C23.5063 9.48697 23.3752 8.69632 23.4878 7.9796C23.6708 6.81404 24.3438 5.60674 25.3013 4.87199C26.0164 4.32297 26.8439 4.18977 27.608 4.73413C27.9267 4.96112 28.1945 5.31238 28.4114 5.78792C28.6416 6.29261 28.7977 6.84607 28.8795 7.44832C28.8827 7.46926 28.8738 7.48182 28.8527 7.48599C28.6859 7.51849 28.5266 7.56891 28.3749 7.63726C28.3682 7.64014 28.3607 7.64046 28.3538 7.63819C28.3469 7.63591 28.341 7.63118 28.3374 7.62489C28.1396 7.27673 27.7967 7.03797 27.4047 7.00399C26.9035 6.96073 26.5071 7.14955 26.2152 7.57046C25.9637 7.93382 25.9484 8.46999 26.1794 8.85333Z" fill="#F4B5CE"/>
<path d="M27.8877 7.92288C27.5492 8.17625 27.2906 8.51057 27.1178 8.90264C27.1135 8.91262 27.1056 8.92067 27.0957 8.92531C27.0857 8.92995 27.0744 8.93087 27.0638 8.9279C26.1573 8.66448 26.4923 7.38761 27.38 7.51455C27.5995 7.54592 27.7718 7.66684 27.8968 7.87731C27.9074 7.89553 27.9044 7.91072 27.8877 7.92288Z" fill="#F4B5CE"/>
<path d="M29.1542 11.75C30.2012 11.8504 31.1314 11.0831 31.2318 10.0361C31.3322 8.98905 30.5649 8.05888 29.5179 7.95845C28.4709 7.85802 27.5407 8.62538 27.4403 9.67238C27.3399 10.7194 28.1072 11.6496 29.1542 11.75Z" fill="#F4B5CE"/>
<path d="M32.4661 10.541C32.3046 10.2737 32.0735 10.1061 31.7729 10.038C31.7533 10.0337 31.744 10.0216 31.7449 10.0018C31.759 9.71522 31.7305 9.45106 31.6594 9.20931C31.6579 9.20361 31.6586 9.19753 31.6614 9.19233C31.6642 9.18713 31.6689 9.1832 31.6745 9.18134C32.4985 8.90694 33.5254 8.73301 34.263 9.18197C34.6155 9.39688 34.8018 9.69699 34.8461 10.1068C34.877 10.3939 34.8618 10.6698 34.8002 10.9346C34.579 11.8821 34.1206 12.6575 33.425 13.2608C32.7839 13.8169 31.91 14.069 31.1461 13.5814C30.6246 13.2486 30.2593 12.7877 30.0502 12.1988C30.0488 12.1948 30.0482 12.1906 30.0484 12.1864C30.0487 12.1822 30.0498 12.1781 30.0516 12.1743C30.0535 12.1706 30.0561 12.1672 30.0592 12.1645C30.0624 12.1617 30.0661 12.1596 30.0701 12.1584C30.2876 12.0888 30.4834 11.9947 30.6575 11.8762C30.6723 11.8659 30.6861 11.8669 30.699 11.8792C31.0517 12.2112 31.4501 12.2974 31.894 12.1377C32.5224 11.9117 32.821 11.1277 32.4661 10.541Z" fill="#F4B5CE"/>
<path d="M31.0928 11.5072C31.3545 11.2315 31.5359 10.9115 31.6441 10.5524C31.65 10.5334 31.6623 10.527 31.681 10.5333C32.0394 10.6533 32.2225 11.0258 32.0408 11.365C31.8504 11.7203 31.4096 11.8188 31.0956 11.5534C31.0922 11.5506 31.0895 11.5472 31.0876 11.5434C31.0856 11.5395 31.0845 11.5353 31.0842 11.5309C31.084 11.5266 31.0846 11.5223 31.086 11.5182C31.0875 11.5141 31.0898 11.5104 31.0928 11.5072Z" fill="#F4B5CE"/>
</svg>
